<?xml version="1.0" encoding="UTF-8"?>
<svg xmlns="http://www.w3.org/2000/svg" xmlns:xlink="http://www.w3.org/1999/xlink" width="22px" height="22px" viewBox="0 0 22 22" version="1.1">
<g id="surface1">
<path style="stroke:none;fill-rule:nonzero;fill:rgb(0%,0%,0%);fill-opacity:1;" d="M 21.773438 5.90625 L 20.671875 4.804688 C 20.527344 4.65625 20.355469 4.582031 20.164062 4.582031 C 19.976562 4.582031 19.804688 4.65625 19.660156 4.804688 L 10.996094 13.464844 L 2.335938 4.804688 C 2.1875 4.65625 2.019531 4.585938 1.828125 4.585938 C 1.636719 4.585938 1.46875 4.65625 1.320312 4.804688 L 0.21875 5.90625 C 0.0742188 6.054688 0 6.222656 0 6.414062 C 0 6.605469 0.0742188 6.773438 0.21875 6.921875 L 10.492188 17.191406 C 10.636719 17.335938 10.804688 17.410156 10.996094 17.410156 C 11.1875 17.410156 11.355469 17.335938 11.503906 17.191406 L 21.773438 6.921875 C 21.921875 6.773438 21.996094 6.605469 21.996094 6.414062 C 21.996094 6.222656 21.921875 6.054688 21.773438 5.90625 Z M 21.773438 5.90625 "/>
</g>
</svg>
